<svg xmlns="http://www.w3.org/2000/svg" xmlns:xlink="http://www.w3.org/1999/xlink" xmlns:fi="http://pattern.flaticon.com/" x="0" y="0" width="700" height="350" viewBox="0 0 700 350"><rect x="0px" y="0px" width="100%" height="100%" opacity="1" fill="#ffffff"/><defs><path d="M468.86,446.934c-2.246-10.815-12.833-17.765-23.648-15.517c-10.815,2.245-17.762,12.833-15.517,23.648    c0.878,4.231-0.194,8.595-2.943,11.973c-1.508,1.853-4.838,4.961-10.204,4.961H283.731l54.007-138.104    c19.667,10.191,37.454,24.084,52.283,41.2c7.232,8.348,19.863,9.252,28.212,2.02c8.348-7.232,9.252-19.864,2.02-28.212    c-24.557-28.345-55.72-49.488-90.244-61.959C355.057,265.832,371,234.245,371,198.999c0-20.703-5.437-40.557-15.624-57.954    L417,118.339V217c0,11.046,8.954,20,20,20c11.046,0,20-8.954,20-20V91c0-0.197-0.024-0.389-0.03-0.585    c0.01-0.253,0.03-0.505,0.03-0.76V88.53c0-8.306-5.134-15.748-12.899-18.697L263.666,1.303c-4.555-1.73-9.585-1.738-14.147-0.021    L67.953,69.626c-7.794,2.934-12.954,10.39-12.954,18.718v1.125c0,8.397,5.245,15.9,13.131,18.784l88.7,32.435    c-10.322,17.476-15.832,37.452-15.832,58.312c0,35.285,15.979,66.903,41.074,88.015c-23.168,8.394-44.914,20.711-64.132,36.564    c-38.209,31.52-64.774,75.483-74.803,123.792c-3.312,15.955,0.671,32.335,10.929,44.94C64.248,504.824,79.332,512,95.45,512    h321.098c16.007,0,31.035-7.186,41.23-19.715C468.156,479.531,472.195,463.001,468.86,446.934z M130.978,88.643l125.555-47.261    l124.893,47.436l-56.265,20.732c-19.656-9.129-50.205-10.771-68.941-10.813c-18.741-0.063-49.314,1.452-68.976,10.481    L130.978,88.643z M180.999,199c0-20.095,7.839-38.933,22.068-53.112c3.863-2.359,21.626-7.152,52.4-7.152c0.234,0,0.471,0,0.706,0    c31.23,0.074,49.189,5.029,53.041,7.43c14.047,14.145,21.785,32.885,21.785,52.833c0,41.355-33.645,75-75,75    C214.644,273.999,180.999,240.355,180.999,199z M95.45,472c-5.518,0-8.858-3.092-10.357-4.935    c-1.544-1.898-3.96-5.924-2.79-11.563c11.089-53.417,45.963-97.285,92.045-121.379L228.267,472H95.45z M211.659,319.701    c14.248-3.721,29.117-5.701,44.34-5.701c15.128,0,30.021,1.933,44.369,5.627l-44.369,113.458L211.659,319.701z" transform="matrix(0.1171875 0 0 0.1171875 279.9999942779539 286)" id="L1_0"/><g transform="matrix(0.1171872690320015 0 0 0.1171872690320015 79 226)" id="L1_1"><circle cx="256" cy="109" r="20"/><path d="M508.385,480.531l-49-70C455.642,405.184,449.526,402,443,402h-80V220c0-13.785,11.215-25,25-25     c13.785,0,25,11.215,25,25v103c0,11.046,8.954,20,20,20c11.046,0,20-8.954,20-20V194h39c11.046,0,20-8.954,20-20v-54     c0-8.036-4.81-15.292-12.211-18.421l-236.5-100c-4.99-2.109-10.62-2.105-15.606,0.012l-235.5,100C4.796,104.728,0,111.975,0,120     v54c0,11.046,8.954,20,20,20h33v216.015c-0.128,0.172-0.261,0.339-0.385,0.516l-49,70c-4.276,6.109-4.799,14.091-1.355,20.706     C5.704,507.852,12.543,512,20,512h472c7.458,0,14.296-4.149,17.74-10.764C513.184,494.622,512.661,486.64,508.385,480.531z      M40,154v-20.764l215.517-91.515L472,133.258V154H40z M323,220v182h-50V220c0-13.785,11.215-25,25-25     C311.785,195,323,206.215,323,220z M233,220v182h-50V220c0-13.785,11.215-25,25-25C221.785,195,233,206.215,233,220z M143,220     v182H93V220c0-13.785,11.215-25,25-25C131.785,195,143,206.215,143,220z M58.413,472l21-30h353.174l21,30H58.413z"/></g><path d="M506.114,353.271L404.547,252.116l77.447-77.236C501.344,155.531,512,129.806,512,102.443    c0-27.363-10.656-53.088-30.005-72.436c-19.348-19.35-45.073-30.006-72.436-30.006c-27.363,0-53.089,10.656-72.438,30.005    l-77.053,77.052L158.425,5.83c-3.766-3.75-8.873-5.855-14.183-5.829C138.928,0.02,133.84,2.152,130.1,5.928L5.79,131.459    c-7.757,7.833-7.713,20.464,0.098,28.244L106.86,260.268l-56.034,56.034c-2.436,2.436-4.201,5.46-5.125,8.779L0.733,486.638    c-1.939,6.968,0.034,14.441,5.163,19.542c3.8,3.78,8.892,5.821,14.106,5.821c1.822,0,3.66-0.25,5.463-0.762l161.557-45.891    c6.816-1.936,12.1-7.335,13.888-14.192c1.788-6.857-0.186-14.148-5.189-19.167L93.869,329.828L331.184,92.513l88.258,88.258    L237.768,361.949c-3.769,3.758-5.883,8.863-5.877,14.185c0.006,5.322,2.134,10.422,5.911,14.171l116.76,115.891    c3.747,3.719,8.812,5.805,14.089,5.805c0.028,0,0.058,0,0.086,0c5.309-0.023,10.39-2.155,14.125-5.927l123.35-124.559    C513.969,373.682,513.925,361.049,506.114,353.271z M143.395,436.159l-94.568,26.862l26.485-95.152L143.395,436.159z     M135.145,231.984l-86.9-86.55l96.165-97.109l31.734,31.604l-39.4,40.045c-7.746,7.874-7.644,20.537,0.23,28.283    c3.895,3.833,8.961,5.744,14.026,5.744c5.173,0,10.343-1.995,14.258-5.973l39.229-39.871l27.298,27.187L135.145,231.984z     M359.469,64.228l5.938-5.938c11.793-11.794,27.473-18.289,44.152-18.289c16.679,0,32.358,6.495,44.152,18.29    C465.505,70.084,472,85.764,472,102.443c0,16.679-6.495,32.359-18.271,44.133l-5.965,5.949L359.469,64.228z M368.529,463.701    l-88.281-87.624l95.977-95.714l26.981,26.872l-38.398,38.676c-7.782,7.839-7.736,20.502,0.103,28.284    c3.9,3.873,8.996,5.807,14.091,5.807c5.142,0,10.284-1.971,14.193-5.909l38.354-38.631l32.209,32.078L368.529,463.701z" transform="matrix(0.1171872690320015 0 0 0.1171872690320015 213 152)" id="L1_2"/><g transform="matrix(0.1171875 0 0 0.1171875 25 79)" id="L1_3"><path d="M247,233c-50.729,0-92,41.271-92,92c0,27.346,11.998,51.939,31,68.805v98.177c0,6.711,3.365,12.975,8.962,16.678     c5.599,3.706,12.678,4.354,18.854,1.731l32.18-13.662l32.181,13.677c2.512,1.067,5.172,1.594,7.821,1.594     c3.869,0,7.715-1.122,11.037-3.319C302.633,504.977,306,498.712,306,492v-96.469c20.158-16.89,33-42.237,33-70.531     C339,274.271,297.729,233,247,233z M266,461.769l-12.177-5.175c-4.996-2.123-10.64-2.125-15.64-0.003L226,461.764v-47.185     c6.748,1.582,13.777,2.421,21,2.421c6.512,0,12.867-0.685,19-1.978V461.769z M247,377c-28.673,0-52-23.327-52-52     c0-28.673,23.327-52,52-52c28.673,0,52,23.327,52,52C299,353.673,275.673,377,247,377z"/><path d="M492,304.111h-70V64.263C422,28.828,393.172,0,357.737,0H80C35.888,0,0,35.888,0,80v40.889c0,11.046,8.954,20,20,20h50     V369c0,32.448,19.362,61.457,49.328,73.903c2.509,1.042,5.106,1.535,7.664,1.535c7.841,0,15.282-4.641,18.478-12.333     c4.237-10.2-0.597-21.905-10.798-26.142C119.685,399.738,110,385.229,110,369V140.889h202c11.046,0,20-8.954,20-20V64.263     C332,50.884,342.884,40,356.263,40h1.475C371.116,40,382,50.884,382,64.263v320.475c0,8.583,1.704,16.771,4.771,24.263H366     c-11.046,0-20,8.954-20,20c0,11.046,8.954,20,20,20h82c0.09,0,0.176-0.012,0.266-0.013C483.457,448.7,512,419.995,512,384.737     v-60.626C512,313.065,503.046,304.111,492,304.111z M292,64.263v36.626H40V80c0-22.056,17.944-40,40-40h216.755     C293.69,47.489,292,55.683,292,64.263z M472,384.737C472,398.116,461.116,409,447.737,409h-1.475     C432.884,409,422,398.116,422,384.737v-40.626h50V384.737z"/></g><g transform="matrix(0.1171875 0 0 0.1171875 154 1)" id="L1_4"><rect x="311px" y="398px" width="40px" height="40px"/><rect x="311px" y="318px" width="40px" height="40px"/><path d="M492,372c11.046,0,20-8.954,20-20v-56c0-33.084-26.916-60-60-60h-88v-40c3.598,2.698,7.809,4.001,11.985,4.001     c6.08,0,12.086-2.763,16.015-8.001c6.627-8.837,4.836-21.373-4-28l-90.72-68.04c-6.522-4.891-13.742-8.457-21.28-10.723V73.351     l39.863-14.566c7.853-2.869,13.092-10.32,13.136-18.68c0.045-8.36-5.116-15.866-12.938-18.817l-53-20     c-6.143-2.318-13.035-1.473-18.436,2.262C239.224,7.284,236,13.434,236,20v65.237c-7.538,2.266-14.758,5.832-21.28,10.723     L124,164c-8.836,6.627-10.627,19.163-4,28c6.627,8.837,19.163,10.626,28,4v40H60c-33.084,0-60,26.916-60,60v156     c0,33.084,26.916,60,60,60h392c33.084,0,60-26.916,60-60c0-11.046-8.954-20-20-20c-11.046,0-20,8.954-20,20     c0,11.028-8.972,20-20,20H275v-54c0-11.046-8.954-20-20-20s-20,8.954-20,20v54H60c-11.028,0-20-8.972-20-20V296     c0-11.028,8.972-20,20-20h108c11.046,0,20-8.954,20-20v-90l50.72-38.04c10.175-7.631,24.386-7.631,34.56,0L324,166v90     c0,11.046,8.954,20,20,20h108c11.028,0,20,8.972,20,20v56C472,363.046,480.954,372,492,372z"/><circle cx="256" cy="207" r="30"/><rect x="392px" y="398px" width="40px" height="40px"/><rect x="392px" y="318px" width="40px" height="40px"/><rect x="80px" y="398px" width="40px" height="40px"/><rect x="80px" y="318px" width="40px" height="40px"/><rect x="236px" y="318px" width="40px" height="40px"/><rect x="160px" y="398px" width="40px" height="40px"/><rect x="160px" y="318px" width="40px" height="40px"/></g></defs><g fi:class="KUsePattern"><pattern id="pattern_L1_0" width="350" height="350" patternUnits="userSpaceOnUse"><use xlink:href="#L1_0" x="-350" y="-350"/><use xlink:href="#L1_0" x="0" y="-350"/><use xlink:href="#L1_0" x="350" y="-350"/><use xlink:href="#L1_0" x="-350" y="0"/><use xlink:href="#L1_0" x="0" y="0"/><use xlink:href="#L1_0" x="350" y="0"/><use xlink:href="#L1_0" x="-350" y="350"/><use xlink:href="#L1_0" x="0" y="350"/><use xlink:href="#L1_0" x="350" y="350"/></pattern><rect x="0" y="0" width="100%" height="100%" fill="url(#pattern_L1_0)"/></g><g fi:class="KUsePattern"><pattern id="pattern_L1_1" width="350" height="350" patternUnits="userSpaceOnUse"><use xlink:href="#L1_1" x="-350" y="-350"/><use xlink:href="#L1_1" x="0" y="-350"/><use xlink:href="#L1_1" x="350" y="-350"/><use xlink:href="#L1_1" x="-350" y="0"/><use xlink:href="#L1_1" x="0" y="0"/><use xlink:href="#L1_1" x="350" y="0"/><use xlink:href="#L1_1" x="-350" y="350"/><use xlink:href="#L1_1" x="0" y="350"/><use xlink:href="#L1_1" x="350" y="350"/></pattern><rect x="0" y="0" width="100%" height="100%" fill="url(#pattern_L1_1)"/></g><g fi:class="KUsePattern"><pattern id="pattern_L1_2" width="350" height="350" patternUnits="userSpaceOnUse"><use xlink:href="#L1_2" x="-350" y="-350"/><use xlink:href="#L1_2" x="0" y="-350"/><use xlink:href="#L1_2" x="350" y="-350"/><use xlink:href="#L1_2" x="-350" y="0"/><use xlink:href="#L1_2" x="0" y="0"/><use xlink:href="#L1_2" x="350" y="0"/><use xlink:href="#L1_2" x="-350" y="350"/><use xlink:href="#L1_2" x="0" y="350"/><use xlink:href="#L1_2" x="350" y="350"/></pattern><rect x="0" y="0" width="100%" height="100%" fill="url(#pattern_L1_2)"/></g><g fi:class="KUsePattern"><pattern id="pattern_L1_3" width="350" height="350" patternUnits="userSpaceOnUse"><use xlink:href="#L1_3" x="-350" y="-350"/><use xlink:href="#L1_3" x="0" y="-350"/><use xlink:href="#L1_3" x="350" y="-350"/><use xlink:href="#L1_3" x="-350" y="0"/><use xlink:href="#L1_3" x="0" y="0"/><use xlink:href="#L1_3" x="350" y="0"/><use xlink:href="#L1_3" x="-350" y="350"/><use xlink:href="#L1_3" x="0" y="350"/><use xlink:href="#L1_3" x="350" y="350"/></pattern><rect x="0" y="0" width="100%" height="100%" fill="url(#pattern_L1_3)"/></g><g fi:class="KUsePattern"><pattern id="pattern_L1_4" width="350" height="350" patternUnits="userSpaceOnUse"><use xlink:href="#L1_4" x="-350" y="-350"/><use xlink:href="#L1_4" x="0" y="-350"/><use xlink:href="#L1_4" x="350" y="-350"/><use xlink:href="#L1_4" x="-350" y="0"/><use xlink:href="#L1_4" x="0" y="0"/><use xlink:href="#L1_4" x="350" y="0"/><use xlink:href="#L1_4" x="-350" y="350"/><use xlink:href="#L1_4" x="0" y="350"/><use xlink:href="#L1_4" x="350" y="350"/></pattern><rect x="0" y="0" width="100%" height="100%" fill="url(#pattern_L1_4)"/></g></svg>